# AST/ASF file generated using VICON BodyLanguage
# -----------------------------------------------
:version 1.10
:name VICON
:units
  mass 1.0
  length 0.45
  angle deg
:documentation
   .ast/.asf automatically generated from VICON data using
   VICON BodyBuilder and BodyLanguage model FoxedUp or BRILLIANT.MOD
:root
   order TX TY TZ RX RY RZ
   axis XYZ
   position 0 0 0  
   orientation 0 0 0 
:bonedata
  begin
     id 1 
     name lhipjoint
     direction 0.700308 -0.549349 0.455834 
     length 2.59063 
     axis 0 0 0  XYZ
  end
  begin
     id 2 
     name lfemur
     direction 0.34202 -0.939693 0  
     length 6.31066  
     axis 0 0 20  XYZ
    dof rx ry rz
    limits (-160.0 20.0)
           (-70.0 70.0)
           (-60.0 70.0)
  end
  begin
     id 3 
     name ltibia
     direction 0.34202 -0.939693 0   
     length 7.36093   
     axis 0 0 20   XYZ
    dof rx
    limits (-10.0 170.0)
  end
  begin
     id 4 
     name lfoot
     direction 0.0905332 -0.248738 0.96433   
     length 2.0233   
     axis -90 7.62852e-016 20   XYZ
    dof rx rz
    limits (-45.0 90.0)
           (-70.0 20.0)
  end
  begin
     id 5 
     name ltoes
     direction 1.53573e-011 -4.21855e-011 1   
     length 1.01524   
     axis -90 7.62852e-016 20   XYZ
    dof rx
    limits (-90.0 20.0)
  end
  begin
     id 6 
     name rhipjoint
     direction -0.61416 -0.607328 0.503944   
     length 2.34332  
     axis 0 0 0  XYZ 
  end
  begin
     id 7 
     name rfemur
     direction -0.34202 -0.939693 0   
     length 6.58548   
     axis 0 0 -20   XYZ
    dof rx ry rz
    limits (-160.0 20.0)
           (-70.0 70.0)
           (-70.0 60.0)
  end
  begin
     id 8 
     name rtibia
     direction -0.34202 -0.939693 0   
     length 7.20707   
     axis 0 0 -20   XYZ
    dof rx
    limits (-10.0 170.0)
 end
 begin
     id 9 
     name rfoot
     direction -0.136772 -0.375778 0.916561   
     length 1.92184  
     axis -90 -7.62852e-016 -20   XYZ
    dof rx rz
    limits (-45.0 90.0)
           (-20.0 70.0)
  end
  begin
     id 10 
     name rtoes
     direction -1.53535e-011 -4.21828e-011 1   
     length 0.951089   
     axis -90 -7.62852e-016 -20   XYZ
    dof rx
    limits (-90.0 20.0)
  end
  begin
     id 11 
     name lowerback
     direction -0.0444974 0.988086 -0.147332   
     length 1.9609   
     axis 0 0 0   XYZ
    dof rx ry rz
    limits (-20.0 45.0)
           (-30.0 30.0)
           (-30.0 30.0)
  end
  begin
     id 12 
     name upperback
     direction 0.00613146 0.999513 0.0306081   
     length 1.94944   
     axis 0 0 0   XYZ
    dof rx ry rz
    limits (-20.0 45.0)
           (-30.0 30.0)
           (-30.0 30.0)
  end
  begin
     id 13 
     name thorax
     direction 0.0254621 0.994518 0.101418   
     length 2.0119   
     axis 0 0 0   XYZ
    dof rx ry rz
    limits (-20.0 45.0)
           (-30.0 30.0)
           (-30.0 30.0)
  end
  begin
     id 14 
     name lowerneck
     direction 0.0168698 0.977854 0.208608   
     length 1.6375   
     axis 0 0 0   XYZ
    dof rx ry rz
    limits (-20.0 45.0)
           (-30.0 30.0)
           (-30.0 30.0)
  end
  begin
     id 15 
     name upperneck
     direction -0.0283988 0.989338 -0.142843   
     length 1.6851   
     axis 0 0 0   XYZ
    dof rx ry rz
    limits (-20.0 45.0)
           (-30.0 30.0)
           (-30.0 30.0)
  end
  begin
     id 16
     name head
     direction -0.0129422 0.99741 -0.0707489  
     length 1.69029  
     axis 0 0 0   XYZ
    dof rx ry rz
    limits (-20.0 45.0)
           (-30.0 30.0)
           (-30.0 30.0)
  end
  begin
     id 17 
     name lclavicle
     direction 0.820295 0.564628 -0.0911715  
     length 3.16484  
     axis 0 0 0   XYZ
    dof ry rz
    limits (-20.0 10.0)
           (0.0 20.0)
  end
  begin
     id 18 
     name lhumerus
     direction 1 -4.48969e-011 1.00186e-027   
     length 5.17853   
     axis 180 -30 -90   XYZ
    dof rx ry rz
    limits (-60.0 90.0)
           (-90.0 90.0)
           (-90.0 90.0)
  end
  begin
     id 19
     name lradius
     direction 1 -4.48966e-011 -1.52922e-027   
     length 3.40399   
     axis 180 -30 -90   XYZ
    dof rx
    limits (-10.0 170.0)
  end
  begin
     id 20
     name lwrist
     direction 1 -4.48981e-011 -3.80893e-027   
     length 1.70199   
     axis 1.1049e-015 90 90   XYZ
    dof ry
    limits (-180.0 0.0)
 end
  begin
     id 21 
     name lhand
     direction 1 -4.48957e-011 -7.61786e-027   
     length 0.708964   
     axis 4.86085e-015 90 90   XYZ
    dof rx rz
    limits (-90.0 90.0)
           (-45.0 45.0)
  end
  begin
     id 22 
     name lfingers
     direction 1 -4.48929e-011 -1.52357e-026   
     length 0.571585   
     axis 9.7217e-015 90 90   XYZ
    dof rx
    limits (0.0 90.0)
  end
  begin
     id 23
     name lthumb
     direction 0.707107 -6.34905e-011 0.707107   
     length 0.820685   
     axis -90 45 2.85299e-015   XYZ
    dof rx rz
    limits (-45.0 45.0)
           (-45.0 45.0)
  end
  begin
     id 24 
     name rclavicle
     direction -0.858602 0.463947 -0.218075   
     length 3.35137  
     axis 0 0 0   XYZ 
    dof ry rz
    limits (-10.0 20.0)
           (-20.0 0.0)
  end
  begin
     id 25 
     name rhumerus
     direction -1 -4.48969e-011 -1.98511e-027  
     length 5.42351   
     axis 180 30 90   XYZ
    dof rx ry rz
    limits (-90.0 60.0)
           (-90.0 90.0)
           (-90.0 90.0)
  end
  begin
     id 26 
     name rradius
     direction -1 -4.48961e-011 -2.82624e-027   
     length 3.42066   
     axis 180 30 90   XYZ
    dof rx
    limits (-10.0 170.0)
  end
  begin
     id 27 
     name rwrist
     direction -1 -4.48966e-011 -3.80893e-027   
     length 1.71033   
     axis 1.1049e-015 -90 -90   XYZ
    dof ry
    limits (-180.0 0.0)
  end
  begin
     id 28
     name rhand
     direction -1 -4.48964e-011 -7.61786e-027   
     length 0.743608   
     axis 4.86085e-015 -90 -90   XYZ
    dof rx rz
    limits (-90.0 90.0)
           (-45.0 45.0)
  end
  begin
     id 29
     name rfingers
     direction -1 -4.48961e-011 -1.52357e-026   
     length 0.599516   
     axis 9.7217e-015 -90 -90   XYZ
    dof rx
    limits (0.0 90.0)
  end
  begin
     id 30
     name rthumb
     direction -0.707107 -6.34913e-011 0.707107   
     length 0.860789   
     axis -90 -45 -2.85299e-015   XYZ
    dof rx rz
    limits (-45.0 45.0)
           (-45.0 45.0)
  end
:hierarchy
  begin
    root lhipjoint rhipjoint lowerback
    lhipjoint lfemur
    lfemur ltibia
    ltibia lfoot
    lfoot ltoes
    rhipjoint rfemur
    rfemur rtibia
    rtibia rfoot
    rfoot rtoes
    lowerback upperback
    upperback thorax
    thorax lowerneck lclavicle rclavicle
    lowerneck upperneck
    upperneck head
    lclavicle lhumerus
    lhumerus lradius
    lradius lwrist
    lwrist lhand lthumb
    lhand lfingers
    rclavicle rhumerus
    rhumerus rradius
    rradius rwrist
    rwrist rhand rthumb
    rhand rfingers
  end

#!OML:ASF E:\mmandel\Project 1\Capture day 1\Session 2\Subject.ASF
:FULLY-SPECIFIED
:DEGREES
1120
root 7.9643 14.2637 0.224815 123.852 83.4245 103.587
lowerback 16.4095 2.05879 -4.62568
upperback 2.1955 1.9944 -0.189465
thorax -6.99567 1.13544 1.97088
lowerneck -14.6462 3.44557 5.45143
upperneck 3.69078 4.11707 -5.80768
head 3.68897 1.85182 -2.35563
rclavicle 1.78906e-014 -2.3059e-014
rhumerus -17.8552 -0.872727 -79.2223
rradius 79.0438
rwrist -17.4061
rhand -15.7873 33.0714
rfingers 7.12502
rthumb 10.4053 3.34889
lclavicle 1.78906e-014 -2.3059e-014
lhumerus -19.1837 -16.0663 81.2642
lradius 74.2725
lwrist 24.5994
lhand -15.6478 -31.2217
lfingers 7.12502
lthumb 10.5399 -1.50592
rfemur -60.7851 -13.3355 15.9314
rtibia 77.9217
rfoot -37.9674 -6.04269
rtoes -8.39343
lfemur -53.4944 22.5015 -15.6832
ltibia 60.0882
lfoot -20.0023 -10.9515
ltoes -3.47881
1121
root 7.96327 14.2487 0.206943 123.236 83.4967 102.978
lowerback 16.5245 2.09699 -4.61762
upperback 2.12268 2.03487 -0.198003
thorax -7.13974 1.15724 1.94354
lowerneck -14.4251 3.56846 5.42017
upperneck 3.48977 4.28176 -5.68893
head 3.598 1.94397 -2.30449
rclavicle -2.46493e-014 3.26007e-014
rhumerus -18.0163 -0.97797 -79.2214
rradius 79.0794
rwrist -17.3677
rhand -15.76 33.1306
rfingers 7.12502
rthumb 10.4317 3.40938
lclavicle -2.46493e-014 3.26007e-014
lhumerus -19.1984 -16.2057 81.2527
lradius 74.2398
lwrist 24.5952
lhand -15.7434 -31.298
lfingers 7.12502
lthumb 10.4477 -1.57757
rfemur -60.893 -13.2717 15.8904
rtibia 78.0614
rfoot -37.973 -5.92799
rtoes -7.83937
lfemur -53.6401 22.5643 -15.6909
ltibia 60.351
lfoot -20.0464 -10.9675
ltoes -3.01499
1122
root 7.96614 14.2367 0.188509 122.549 83.528 102.35
lowerback 16.5871 2.14207 -4.67632
upperback 2.09253 2.08106 -0.160256
thorax -7.21352 1.18292 2.00425
lowerneck -14.5135 3.61386 5.15386
upperneck 3.61251 4.35988 -5.32018
head 3.63826 1.99473 -2.14027
rclavicle 2.42517e-014 -7.95139e-016
rhumerus -18.1126 -1.05085 -79.1757
rradius 79.0659
rwrist -17.3391
rhand -15.7766 32.991
rfingers 7.12502
rthumb 10.4157 3.269
lclavicle 2.42517e-014 -7.95139e-016
lhumerus -19.0934 -16.2987 81.3507
lradius 74.0195
lwrist 24.6175
lhand -15.8835 -31.4493
lfingers 7.12502
lthumb 10.3125 -1.72211
rfemur -60.8773 -13.2703 15.7878
rtibia 78.1805
rfoot -38.0245 -5.70152
rtoes -7.20618
lfemur -53.6667 22.6019 -15.7101
ltibia 60.5939
lfoot -20.1866 -10.9952
ltoes -2.67511
1123
root 7.97092 14.229 0.17108 121.437 83.4275 101.272
lowerback 16.4777 2.16288 -4.93644
upperback 2.13062 2.07064 -0.155004
thorax -7.12064 1.18337 2.16306
lowerneck -14.6512 3.64991 5.0251
upperneck 3.71222 4.39848 -4.95713
head 3.67987 2.0279 -2.00238
rclavicle -6.75868e-015 -3.57812e-014
rhumerus -18.1218 -0.968912 -79.0731
rradius 79.0363
rwrist -17.4564
rhand -15.7939 32.7776
rfingers 7.12502
rthumb 10.399 3.05475
lclavicle -6.75868e-015 -3.57812e-014
lhumerus -18.9561 -16.2919 81.3616
lradius 73.9087
lwrist 24.7058
lhand -15.9322 -31.4076
lfingers 7.12502
lthumb 10.2655 -1.67814
rfemur -60.8597 -13.3191 15.557
rtibia 78.2669
rfoot -38.0614 -5.66215
rtoes -7.49526
lfemur -53.6725 22.6069 -15.8946
ltibia 60.7994
lfoot -20.3643 -11.0209
ltoes -2.47454
1124
root 7.97044 14.2223 0.15173 120.918 83.3204 100.726
lowerback 16.4279 2.13549 -5.05843
upperback 2.14271 2.01092 -0.241607
thorax -7.07641 1.15612 2.15447
lowerneck -14.702 3.81544 5.40441
upperneck 3.71874 4.55699 -5.06947
head 3.7088 2.10614 -2.08412
rclavicle -3.61788e-014 -2.22639e-014
rhumerus -18.1639 -1.03553 -79.1474
rradius 79.0263
rwrist -17.4653
rhand -15.8544 32.7537
rfingers 7.12502
rthumb 10.3406 3.02797
lclavicle -3.61788e-014 -2.22639e-014
lhumerus -18.9099 -16.274 81.2031
lradius 73.9941
lwrist 24.7765
lhand -15.8521 -31.3453
lfingers 7.12502
lthumb 10.3429 -1.61962
rfemur -60.9366 -13.4021 15.3638
rtibia 78.3255
rfoot -38.0604 -5.70184
rtoes -7.92313
lfemur -53.8053 22.5583 -16.1108
ltibia 61.0062
lfoot -20.5346 -10.9364
ltoes -2.80488
1125
root 7.96956 14.2178 0.129305 121.057 83.3962 100.902
lowerback 16.4659 2.11244 -4.89549
upperback 2.17688 2.0066 -0.286629
thorax -7.05296 1.14872 2.01474
lowerneck -14.761 3.98793 5.78426
upperneck 3.63574 4.73876 -5.37224
head 3.71907 2.18701 -2.22309
rclavicle -3.57812e-014 -4.92986e-014
rhumerus -18.2199 -1.19656 -79.2728
rradius 79.0678
rwrist -17.4016
rhand -16.0059 32.7602
rfingers 7.12502
rthumb 10.1945 3.02716
lclavicle -3.57812e-014 -4.92986e-014
lhumerus -18.8552 -16.3141 81.0653
lradius 74.1203
lwrist 24.7331
lhand -15.909 -31.3934
lfingers 7.12502
lthumb 10.2879 -1.66498
rfemur -60.8948 -13.4415 15.3507
rtibia 78.338
rfoot -38.0727 -5.58939
rtoes -7.91128
lfemur -53.8761 22.5272 -16.0923
ltibia 61.2248
lfoot -20.7044 -10.7973
ltoes -3.36361
1126
root 7.97364 14.2152 0.104602 121.062 83.5549 100.937
lowerback 16.3945 2.11402 -4.68423
upperback 2.19676 2.05202 -0.264128
thorax -6.98935 1.16376 1.91149
lowerneck -14.728 4.12351 5.84967
upperneck 3.48117 4.92001 -5.5265
head 3.68251 2.27219 -2.26789
rclavicle -3.26007e-014 -1.27222e-014
rhumerus -18.2956 -1.26338 -79.245
rradius 79.117
rwrist -17.4003
rhand -16.1242 32.7076
rfingers 7.12502
rthumb 10.0803 2.96909
lclavicle -3.26007e-014 -1.27222e-014
lhumerus -18.772 -16.414 81.0602
lradius 74.1751
lwrist 24.7065
lhand -16.0213 -31.2502
lfingers 7.12502
lthumb 10.1796 -1.51646
rfemur -60.8106 -13.4539 15.4089
rtibia 78.3128
rfoot -38.0089 -5.58443
rtoes -8.24546
lfemur -53.9213 22.5083 -15.9853
ltibia 61.4588
lfoot -20.8909 -10.7025
ltoes -3.5149
1127
root 7.9742 14.2106 0.0827823 120.99 83.6062 100.826
lowerback 16.3886 2.12309 -4.64679
upperback 2.12177 2.06635 -0.254798
thorax -7.0672 1.17097 1.89585
lowerneck -14.6874 4.19772 5.89483
upperneck 3.45417 5.01443 -5.55366
head 3.67503 2.31904 -2.27657
rclavicle 1.94809e-014 -1.35174e-014
rhumerus -18.3968 -1.36878 -79.1949
rradius 79.1072
rwrist -17.3866
rhand -16.1048 32.6915
rfingers 7.12502
rthumb 10.099 2.95383
lclavicle 1.94809e-014 -1.35174e-014
lhumerus -18.7771 -16.4733 81.106
lradius 74.1201
lwrist 24.6722
lhand -16.0627 -31.3613
lfingers 7.12502
lthumb 10.1397 -1.62566
rfemur -60.8809 -13.4799 15.3846
rtibia 78.3147
rfoot -37.8941 -5.69007
rtoes -8.66426
lfemur -54.0785 22.4575 -16.0079
ltibia 61.6917
lfoot -21.0108 -10.7128
ltoes -2.92646
1128
root 7.97339 14.2064 0.061745 120.993 83.6725 100.826
lowerback 16.4676 2.10833 -4.65676
upperback 2.05786 2.03918 -0.22495
thorax -7.17923 1.16049 1.93624
lowerneck -14.6791 4.2431 6.08242
upperneck 3.53206 5.04566 -5.60144
head 3.70531 2.33397 -2.31819
rclavicle -3.81667e-014 -4.92986e-014
rhumerus -18.4911 -1.38003 -79.189
rradius 79.0951
rwrist -17.4194
rhand -16.0425 32.7101
rfingers 7.12502
rthumb 10.1592 2.97537
lclavicle -3.81667e-014 -4.92986e-014
lhumerus -18.8287 -16.3467 81.1239
lradius 74.0219
lwrist 24.5827
lhand -16.1467 -31.8547
lfingers 7.12502
lthumb 10.0586 -2.11508
rfemur -60.9206 -13.4838 15.3702
rtibia 78.3084
rfoot -37.8944 -5.72712
rtoes -8.73645
lfemur -54.1919 22.4438 -16.0027
ltibia 61.9209
lfoot -21.1127 -10.7124
ltoes -2.46745
1129
root 7.97768 14.2039 0.036998 121.076 83.8663 100.993
lowerback 16.5185 2.06803 -4.45056
upperback 2.05795 2.02154 -0.206981
thorax -7.19957 1.14673 1.84157
lowerneck -14.6317 4.31119 6.38799
upperneck 3.54658 5.09643 -5.77159
head 3.71791 2.35533 -2.41582
rclavicle -1.78906e-014 -1.03368e-014
rhumerus -18.5816 -1.35086 -79.2321
rradius 79.0794
rwrist -17.4381
rhand -15.9449 32.7386
rfingers 7.12502
rthumb 10.2533 3.00853
lclavicle -1.78906e-014 -1.03368e-014
lhumerus -18.8201 -16.2867 81.0478
lradius 73.9332
lwrist 24.5937
lhand -16.2596 -32.1386
lfingers 7.12502
lthumb 9.94967 -2.39371
rfemur -60.7672 -13.4438 15.4368
rtibia 78.2617
rfoot -37.9705 -5.65424
rtoes -8.61413
lfemur -54.1694 22.4742 -15.8373
ltibia 62.1511
lfoot -21.2642 -10.6705
ltoes -2.45436
1130
root 7.98435 14.2046 0.0117424 120.649 84.0154 100.654
lowerback 16.497 2.06884 -4.27369
upperback 2.09917 2.05738 -0.20686
thorax -7.13959 1.15803 1.73487
lowerneck -14.6727 4.30638 6.40642
upperneck 3.48609 5.07865 -5.70986
head 3.70316 2.3502 -2.40094
rclavicle -7.95139e-016 3.10104e-014
rhumerus -18.5735 -1.44966 -79.2491
rradius 78.9789
rwrist -17.4351
rhand -15.8322 32.7827
rfingers 7.12502
rthumb 10.362 3.058
lclavicle -7.95139e-016 3.10104e-014
lhumerus -18.7562 -16.41 80.9802
lradius 73.9407
lwrist 24.7173
lhand -16.2271 -32.0537
lfingers 7.12502
lthumb 9.9811 -2.31037
rfemur -60.5779 -13.3951 15.4221
rtibia 78.1976
rfoot -37.9686 -5.5832
rtoes -8.58379
lfemur -54.1106 22.5149 -15.7473
ltibia 62.3492
lfoot -21.4467 -10.6237
ltoes -2.53153
1131
root 7.99074 14.2016 -0.0102786 119.414 83.9922 99.4702
lowerback 16.4571 2.12667 -4.42095
upperback 2.14008 2.11246 -0.192784
thorax -7.08282 1.18789 1.82249
lowerneck -14.7415 4.25081 6.01973
upperneck 3.48216 5.03585 -5.25454
head 3.6869 2.34591 -2.20137
rclavicle -1.15295e-014 5.56597e-015
rhumerus -18.546 -1.53297 -79.2132
rradius 78.855
rwrist -17.5275
rhand -15.9048 32.7788
rfingers 7.12502
rthumb 10.292 3.05062
lclavicle -1.15295e-014 5.56597e-015
lhumerus -18.7511 -16.4722 81.0117
lradius 74.1044
lwrist 24.7543
lhand -16.1453 -31.6707
lfingers 7.12502
lthumb 10.0599 -1.93119
rfemur -60.5068 -13.3753 15.2282
rtibia 78.1797
rfoot -37.9276 -5.56176
rtoes -8.77051
lfemur -54.0657 22.5112 -15.8533
ltibia 62.5145
lfoot -21.6529 -10.5196
ltoes -2.78805
1132
root 7.99371 14.1948 -0.0324989 118.269 83.9903 98.3835
lowerback 16.4736 2.13877 -4.56687
upperback 2.17052 2.10327 -0.199445
thorax -7.06322 1.18712 1.90001
lowerneck -14.6966 4.38559 5.83167
upperneck 3.50722 5.23198 -4.99053
head 3.68537 2.45407 -2.07469
rclavicle -6.36111e-015 3.18055e-015
rhumerus -18.5897 -1.49738 -79.2921
rradius 78.875
rwrist -17.5983
rhand -16.1028 32.6746
rfingers 7.12502
rthumb 10.101 2.93706
lclavicle -6.36111e-015 3.18055e-015
lhumerus -18.726 -16.337 80.9546
lradius 74.1874
lwrist 24.6783
lhand -16.1583 -31.4447
lfingers 7.12502
lthumb 10.0474 -1.70454
rfemur -60.4742 -13.335 15.0708
rtibia 78.204
rfoot -37.8778 -5.5117
rtoes -8.9185
lfemur -54.0096 22.4762 -15.9043
ltibia 62.6667
lfoot -21.8079 -10.4222
ltoes -2.80958
1133
root 7.99575 14.1953 -0.0586984 117.193 84.0305 97.3039
lowerback 16.4609 2.11113 -4.56841
upperback 2.15831 2.0629 -0.251608
thorax -7.06464 1.16706 1.85442
lowerneck -14.7734 4.64355 6.07048
upperneck 3.62098 5.54739 -5.19769
head 3.76204 2.60144 -2.14804
rclavicle 8.34896e-015 -1.90833e-014
rhumerus -18.704 -1.45944 -79.4218
rradius 78.981
rwrist -17.596
rhand -16.1821 32.6188
rfingers 7.12502
rthumb 10.0245 2.87758
lclavicle 8.34896e-015 -1.90833e-014
lhumerus -18.5719 -16.2576 80.8178
lradius 74.0255
lwrist 24.6919
lhand -16.1505 -31.5931
lfingers 7.12502
lthumb 10.055 -1.85335
rfemur -60.4772 -13.3335 14.9729
rtibia 78.2077
rfoot -37.7924 -5.34617
rtoes -8.72341
lfemur -54.0169 22.4369 -15.9611
ltibia 62.8208
lfoot -21.9402 -10.3482
ltoes -2.40734
1134
root 7.99819 14.1939 -0.0853589 116.115 84.0033 96.165
lowerback 16.4436 2.1397 -4.62095
upperback 2.12428 2.08732 -0.28484
thorax -7.09416 1.18029 1.84284
lowerneck -15.0529 4.72178 6.18394
upperneck 3.82839 5.6316 -5.33224
head 3.88172 2.6329 -2.19363
rclavicle -5.56597e-015 -3.4191e-014
rhumerus -18.8547 -1.50639 -79.3758
rradius 79.0583
rwrist -17.6351
rhand -16.1117 32.7393
rfingers 7.12502
rthumb 10.0924 3.00135
lclavicle -5.56597e-015 -3.4191e-014
lhumerus -18.3754 -16.3594 80.8134
lradius 73.8083
lwrist 24.7102
lhand -16.141 -31.7948
lfingers 7.12502
lthumb 10.0641 -2.05543
rfemur -60.5823 -13.4044 14.8211
rtibia 78.2376
rfoot -37.7257 -5.16195
rtoes -8.55476
lfemur -54.1415 22.3966 -16.1334
ltibia 63.0067
lfoot -22.0924 -10.2328
ltoes -2.27006
